<?xml version="1.0" ?><svg id="Layer_1" style="enable-background:new 0 0 512 512;" version="1.1" viewBox="0 0 512 512" xml:space="preserve" xmlns="http://www.w3.org/2000/svg" xmlns:xlink="http://www.w3.org/1999/xlink"><g id="XMLID_1130_"><rect height="19.1" id="XMLID_321_" width="227.1" x="120.3" y="158.6"/><rect height="19.1" id="XMLID_320_" width="227.1" x="120.3" y="189.6"/><rect height="19.1" id="XMLID_319_" width="227.1" x="120.3" y="220.7"/><rect height="19.1" id="XMLID_318_" width="227.1" x="120.3" y="251.7"/><rect height="19.1" id="XMLID_317_" width="176.5" x="120.3" y="282.7"/><path d="M456.1,75.1L397.6,7.3c-1.8-1.8-4.9-1.8-6.7,0l-58.5,67.8c-2.6,2.6-0.6,6.7,3.3,6.7h27.4V135h62.1V81.8   h27.4C456.7,81.8,458.7,77.7,456.1,75.1z" id="XMLID_316_"/><rect height="24.2" id="XMLID_315_" width="62.1" x="363.2" y="144.6"/><path d="M363.2,187.3c0,2.2,2,4,4.5,4h53.1c2.5,0,4.5-1.8,4.5-4v-8.9h-62.1V187.3z" id="XMLID_314_"/><path d="M386.7,464.2c0,15.8-12.8,28.6-28.6,28.6H109.5c-15.8,0-28.6-12.8-28.6-28.6v-8.8H67.7V469   c0,20.5,16.6,37,37,37h258.1c20.5,0,37-16.6,37-37V200.4h-13.2V464.2z" id="XMLID_313_"/><path d="M80.9,110.3c0-15.8,12.8-28.6,28.6-28.6h213.2c-1.4-4.4-0.3-9.3,3-12.7l0.4-0.4H104.8   c-20.5,0-37,16.6-37,37V333h13.2V110.3z" id="XMLID_312_"/><path d="M345.4,394.3L345.4,394.3c0-28.7-23.3-52.1-52.1-52.1H54.7v104.1h238.7   C322.1,446.3,345.4,423,345.4,394.3z M176.6,423.4h-9.7v-41.9l-0.2,0l-16.1,41.9h-6.7l-16.3-42.7l-0.2,0.1v42.7h-9.7v-58.3h12.8   L147,410h0.2l16.9-44.9h12.4V423.4z M228.8,396.4c-3.6,3.3-8.7,4.9-15.1,4.9h-12.6v22.1h-9.7v-58.3h22.3c6.4,0,11.5,1.7,15.1,5   c3.6,3.3,5.5,7.7,5.5,13.1C234.3,388.7,232.4,393.1,228.8,396.4z M277.2,419.7c-3.6,3-8.3,4.6-13.9,4.6c-5.1,0-9.6-1.4-13.5-4.3   c-3.9-2.9-5.7-6.9-5.6-11.9l0.1-0.2h9.4c0,2.5,0.9,4.5,2.7,6.2c1.8,1.7,4.1,2.5,6.9,2.5c2.9,0,5.3-0.9,7-2.6c1.7-1.7,2.6-4,2.6-6.7   c0-3.3-0.8-5.8-2.4-7.4c-1.6-1.6-4.1-2.4-7.3-2.4h-6.5v-7.7h6.5c3.2,0,5.4-0.8,6.8-2.4c1.4-1.6,2.1-3.8,2.1-6.6   c0-2.5-0.7-4.6-2.2-6.2c-1.5-1.6-3.7-2.4-6.5-2.4c-2.6,0-4.8,0.8-6.5,2.3c-1.7,1.6-2.6,3.5-2.6,5.9h-9.3l-0.1-0.2   c-0.2-4.5,1.5-8.2,5.1-11.2c3.6-3,8-4.5,13.4-4.5c5.7,0,10.2,1.4,13.5,4.2c3.3,2.8,4.9,6.9,4.9,12.2c0,2.7-0.7,5.1-2.2,7.3   c-1.5,2.2-3.5,4-6.1,5.2c3,1.2,5.2,2.9,6.8,5.3c1.6,2.4,2.4,5.2,2.4,8.6C282.6,412.4,280.8,416.6,277.2,419.7z" id="XMLID_1132_"/><path d="M213.7,372.9h-12.6v20.6h12.6c3.6,0,6.3-1,8.1-2.9c1.8-1.9,2.7-4.4,2.7-7.3c0-3-0.9-5.4-2.7-7.4   C220,373.9,217.3,372.9,213.7,372.9z" id="XMLID_307_"/></g></svg>